HIERARCHY
ROOT Hips
{
	OFFSET 0.000000 0.000000 0.000000
	CHANNELS 6 Xposition Yposition Zposition Zrotation Yrotation Xrotation 
	JOINT Spine1
	{
		OFFSET -0.013727 5.003762 -0.053727
		CHANNELS 3 Zrotation Yrotation Xrotation
		JOINT Spine2
		{
			OFFSET -0.000000 7.125302 -0.029825
			CHANNELS 3 Zrotation Yrotation Xrotation
			JOINT Chest
			{
				OFFSET -0.000001 7.550064 -0.815971
				CHANNELS 3 Zrotation Yrotation Xrotation
				JOINT Neck1
				{
					OFFSET -0.181677 26.311296 -0.553348
					CHANNELS 3 Zrotation Yrotation Xrotation
					JOINT Neck2
					{
						OFFSET -0.000003 7.709398 2.302586
						CHANNELS 3 Zrotation Yrotation Xrotation
						JOINT Head
						{
							OFFSET -0.000005 6.128913 1.953708
							CHANNELS 3 Zrotation Yrotation Xrotation
							JOINT HeadEnd
							{
								OFFSET 0.003598 16.065401 -1.835379
								CHANNELS 3 Zrotation Yrotation Xrotation
								End Site
								{
									OFFSET 0.000000 0.000000 0.000000
								}
							}
							JOINT Jaw
							{
								OFFSET 0.002637 0.475591 3.094941
								CHANNELS 3 Zrotation Yrotation Xrotation
								End Site
								{
									OFFSET 0.000000 0.000000 0.000000
								}
							}
							JOINT LeftEye
							{
								OFFSET 3.206381 5.380207 7.586883
								CHANNELS 3 Zrotation Yrotation Xrotation
								End Site
								{
									OFFSET 0.000000 0.000000 0.000000
								}
							}
							JOINT RightEye
							{
								OFFSET -3.222440 5.361867 7.558233
								CHANNELS 3 Zrotation Yrotation Xrotation
								End Site
								{
									OFFSET 0.000000 0.000000 0.000000
								}
							}
						}
					}
				}
				JOINT LeftShoulder
				{
					OFFSET 1.621652 23.237164 5.113413
					CHANNELS 3 Zrotation Yrotation Xrotation
					JOINT LeftArm
					{
						OFFSET 14.919845 0.000000 -5.502326
						CHANNELS 3 Zrotation Yrotation Xrotation
						JOINT LeftForeArm
						{
							OFFSET 28.739309 0.000003 -0.002588
							CHANNELS 3 Zrotation Yrotation Xrotation
							JOINT LeftHand
							{
								OFFSET 27.093979 -0.000003 0.002609
								CHANNELS 3 Zrotation Yrotation Xrotation
								JOINT LeftHandThumb1
								{
									OFFSET 2.276480 -1.392046 3.191413
									CHANNELS 3 Zrotation Yrotation Xrotation
									JOINT LeftHandThumb2
									{
										OFFSET 4.012841 -1.828126 1.641656
										CHANNELS 3 Zrotation Yrotation Xrotation
										JOINT LeftHandThumb3
										{
											OFFSET 2.798516 0.000001 -0.000003
											CHANNELS 3 Zrotation Yrotation Xrotation
											JOINT LeftHandThumbEnd
											{
												OFFSET 3.180791 -0.000001 0.000003
												CHANNELS 3 Zrotation Yrotation Xrotation
												End Site
												{
													OFFSET 0.000000 0.000000 0.000000
												}
											}
										}
									}
								}
								JOINT LeftHandIndex1
								{
									OFFSET 3.247553 -0.531998 2.296169
									CHANNELS 3 Zrotation Yrotation Xrotation
									JOINT LeftHandIndex2
									{
										OFFSET 6.364580 0.012062 0.178600
										CHANNELS 3 Zrotation Yrotation Xrotation
										JOINT LeftHandIndex3
										{
											OFFSET 3.662366 0.000001 -0.000000
											CHANNELS 3 Zrotation Yrotation Xrotation
											JOINT LeftHandIndex4
											{
												OFFSET 2.329243 0.000003 0.000004
												CHANNELS 3 Zrotation Yrotation Xrotation
												JOINT LeftHandIndexEnd
												{
													OFFSET 2.759619 -0.180539 -0.113024
													CHANNELS 3 Zrotation Yrotation Xrotation
													End Site
													{
														OFFSET 0.000000 0.000000 0.000000
													}
												}
											}
										}
									}
								}
								JOINT LeftHandMiddle1
								{
									OFFSET 3.163499 0.240982 1.000332
									CHANNELS 3 Zrotation Yrotation Xrotation
									JOINT LeftHandMiddle2
									{
										OFFSET 6.190778 -0.259276 -1.002549
										CHANNELS 3 Zrotation Yrotation Xrotation
										JOINT LeftHandMiddle3
										{
											OFFSET 4.356523 -0.000006 0.000000
											CHANNELS 3 Zrotation Yrotation Xrotation
											JOINT LeftHandMiddle4
											{
												OFFSET 2.996875 -0.000006 0.000001
												CHANNELS 3 Zrotation Yrotation Xrotation
												JOINT LeftHandMiddleEnd
												{
													OFFSET 2.304294 -0.294571 -0.031740
													CHANNELS 3 Zrotation Yrotation Xrotation
													End Site
													{
														OFFSET 0.000000 0.000000 0.000000
													}
												}
											}
										}
									}
								}
								JOINT LeftHandRing1
								{
									OFFSET 2.882642 -0.053650 -0.322543
									CHANNELS 3 Zrotation Yrotation Xrotation
									JOINT LeftHandRing2
									{
										OFFSET 5.854542 -0.486203 -1.373841
										CHANNELS 3 Zrotation Yrotation Xrotation
										JOINT LeftHandRing3
										{
											OFFSET 4.350581 0.000000 0.000003
											CHANNELS 3 Zrotation Yrotation Xrotation
											JOINT LeftHandRing4
											{
												OFFSET 2.651324 0.000008 0.000003
												CHANNELS 3 Zrotation Yrotation Xrotation
												JOINT LeftHandRingEnd
												{
													OFFSET 1.936110 0.077685 -0.000070
													CHANNELS 3 Zrotation Yrotation Xrotation
													End Site
													{
														OFFSET 0.000000 0.000000 0.000000
													}
												}
											}
										}
									}
								}
								JOINT LeftHandPinky1
								{
									OFFSET 2.865499 -0.310004 -1.600378
									CHANNELS 3 Zrotation Yrotation Xrotation
									JOINT LeftHandPinky2
									{
										OFFSET 5.087853 -1.331142 -1.771231
										CHANNELS 3 Zrotation Yrotation Xrotation
										JOINT LeftHandPinky3
										{
											OFFSET 3.070975 0.000003 0.000001
											CHANNELS 3 Zrotation Yrotation Xrotation
											JOINT LeftHandPinky4
											{
												OFFSET 1.549668 0.000000 0.000001
												CHANNELS 3 Zrotation Yrotation Xrotation
												JOINT LeftHandPinkyEnd
												{
													OFFSET 1.944895 -0.157802 0.057219
													CHANNELS 3 Zrotation Yrotation Xrotation
													End Site
													{
														OFFSET 0.000000 0.000000 0.000000
													}
												}
											}
										}
									}
								}
							}
						}
					}
				}
				JOINT RightShoulder
				{
					OFFSET -1.380118 23.180305 5.214158
					CHANNELS 3 Zrotation Yrotation Xrotation
					JOINT RightArm
					{
						OFFSET -15.037197 0.000012 -5.545604
						CHANNELS 3 Zrotation Yrotation Xrotation
						JOINT RightForeArm
						{
							OFFSET -28.736639 0.000003 -0.002597
							CHANNELS 3 Zrotation Yrotation Xrotation
							JOINT RightHand
							{
								OFFSET -27.133617 0.000000 0.002613
								CHANNELS 3 Zrotation Yrotation Xrotation
								JOINT RightHandThumb1
								{
									OFFSET -2.274036 -1.383990 3.163127
									CHANNELS 3 Zrotation Yrotation Xrotation
									JOINT RightHandThumb2
									{
										OFFSET -4.011429 -1.827467 1.640914
										CHANNELS 3 Zrotation Yrotation Xrotation
										JOINT RightHandThumb3
										{
											OFFSET -2.794934 -0.000003 -0.000003
											CHANNELS 3 Zrotation Yrotation Xrotation
											JOINT RightHandThumbEnd
											{
												OFFSET -3.183855 0.000003 -0.000001
												CHANNELS 3 Zrotation Yrotation Xrotation
												End Site
												{
													OFFSET 0.000000 0.000000 0.000000
												}
											}
										}
									}
								}
								JOINT RightHandIndex1
								{
									OFFSET -3.253270 -0.520060 2.282866
									CHANNELS 3 Zrotation Yrotation Xrotation
									JOINT RightHandIndex2
									{
										OFFSET -6.341918 0.012472 0.178265
										CHANNELS 3 Zrotation Yrotation Xrotation
										JOINT RightHandIndex3
										{
											OFFSET -3.654875 -0.000008 -0.000001
											CHANNELS 3 Zrotation Yrotation Xrotation
											JOINT RightHandIndex4
											{
												OFFSET -2.327586 -0.000000 0.000001
												CHANNELS 3 Zrotation Yrotation Xrotation
												JOINT RightHandIndexEnd
												{
													OFFSET -2.761789 -0.180657 -0.113078
													CHANNELS 3 Zrotation Yrotation Xrotation
													End Site
													{
														OFFSET 0.000000 0.000000 0.000000
													}
												}
											}
										}
									}
								}
								JOINT RightHandMiddle1
								{
									OFFSET -3.168106 0.246593 1.001030
									CHANNELS 3 Zrotation Yrotation Xrotation
									JOINT RightHandMiddle2
									{
										OFFSET -6.180830 -0.258835 -1.000896
										CHANNELS 3 Zrotation Yrotation Xrotation
										JOINT RightHandMiddle3
										{
											OFFSET -4.348906 -0.000000 -0.000001
											CHANNELS 3 Zrotation Yrotation Xrotation
											JOINT RightHandMiddle4
											{
												OFFSET -3.000243 -0.000004 -0.000002
												CHANNELS 3 Zrotation Yrotation Xrotation
												JOINT RightHandMiddleEnd
												{
													OFFSET -2.302518 -0.294371 -0.031706
													CHANNELS 3 Zrotation Yrotation Xrotation
													End Site
													{
														OFFSET 0.000000 0.000000 0.000000
													}
												}
											}
										}
									}
								}
								JOINT RightHandRing1
								{
									OFFSET -2.885694 -0.067952 -0.308859
									CHANNELS 3 Zrotation Yrotation Xrotation
									JOINT RightHandRing2
									{
										OFFSET -5.854196 -0.486132 -1.373732
										CHANNELS 3 Zrotation Yrotation Xrotation
										JOINT RightHandRing3
										{
											OFFSET -4.338814 -0.000003 -0.000000
											CHANNELS 3 Zrotation Yrotation Xrotation
											JOINT RightHandRing4
											{
												OFFSET -2.654906 -0.000004 0.000004
												CHANNELS 3 Zrotation Yrotation Xrotation
												JOINT RightHandRingEnd
												{
													OFFSET -1.933570 0.077524 -0.000052
													CHANNELS 3 Zrotation Yrotation Xrotation
													End Site
													{
														OFFSET 0.000000 0.000000 0.000000
													}
												}
											}
										}
									}
								}
								JOINT RightHandPinky1
								{
									OFFSET -2.866429 -0.342798 -1.584145
									CHANNELS 3 Zrotation Yrotation Xrotation
									JOINT RightHandPinky2
									{
										OFFSET -5.091370 -1.332054 -1.772385
										CHANNELS 3 Zrotation Yrotation Xrotation
										JOINT RightHandPinky3
										{
											OFFSET -3.062666 -0.000006 0.000000
											CHANNELS 3 Zrotation Yrotation Xrotation
											JOINT RightHandPinky4
											{
												OFFSET -1.546526 0.000006 -0.000002
												CHANNELS 3 Zrotation Yrotation Xrotation
												JOINT RightHandPinkyEnd
												{
													OFFSET -1.945122 -0.157721 0.057211
													CHANNELS 3 Zrotation Yrotation Xrotation
													End Site
													{
														OFFSET 0.000000 0.000000 0.000000
													}
												}
											}
										}
									}
								}
							}
						}
					}
				}
			}
		}
	}
	JOINT LeftLeg
	{
		OFFSET 10.043214 -8.434526 2.595655
		CHANNELS 3 Zrotation Yrotation Xrotation
		JOINT LeftShin
		{
			OFFSET -0.000001 -43.221752 -0.802913
			CHANNELS 3 Zrotation Yrotation Xrotation
			JOINT LeftFoot
			{
				OFFSET 0.000001 -42.155094 -3.481523
				CHANNELS 3 Zrotation Yrotation Xrotation
				JOINT LeftToeBase
				{
					OFFSET -0.000000 -5.059475 13.231529
					CHANNELS 3 Zrotation Yrotation Xrotation
					JOINT LeftToeEnd
					{
						OFFSET -0.009607 -1.647615 6.513017
						CHANNELS 3 Zrotation Yrotation Xrotation
						End Site
						{
							OFFSET 0.000000 0.000000 0.000000
						}
					}
				}
			}
		}
	}
	JOINT RightLeg
	{
		OFFSET -10.047277 -8.295259 2.620317
		CHANNELS 3 Zrotation Yrotation Xrotation
		JOINT RightShin
		{
			OFFSET 0.000001 -43.362209 -0.805556
			CHANNELS 3 Zrotation Yrotation Xrotation
			JOINT RightFoot
			{
				OFFSET 0.000002 -42.117393 -3.478398
				CHANNELS 3 Zrotation Yrotation Xrotation
				JOINT RightToeBase
				{
					OFFSET -0.000001 -5.079609 13.284196
					CHANNELS 3 Zrotation Yrotation Xrotation
					JOINT RightToeEnd
					{
						OFFSET 0.009532 -1.634382 6.460591
						CHANNELS 3 Zrotation Yrotation Xrotation
						End Site
						{
							OFFSET 0.000000 0.000000 0.000000
						}
					}
				}
			}
		}
	}
}
MOTION
Frames: 4
Frame Time: 0.033333
-0.295318 100.348152 6.346655 0.078749 0.015794 -0.322155 0.385704 -0.109655 -1.669314 -0.437783 -0.595634 -5.523164 -0.447196 -2.202586 13.938447 -0.742160 3.028613 -3.122316 -0.269022 0.420434 -3.580142 0.034161 -0.484468 -5.883622 0.000077 -0.000022 0.000006 0.010761 0.079683 -0.056124 0.768046 -3.645479 -10.656831 -0.751256 3.813753 -10.620444 -11.229454 -5.322636 16.774408 -61.804466 -16.010351 32.616550 0.085595 -26.320299 -0.156215 8.059011 -1.613592 -5.206465 -5.882101 9.861279 0.702590 -10.936859 -0.360575 7.156196 0.000001 8.774815 0.000001 -15.786385 17.957272 6.135602 -1.844032 2.498503 -2.507276 -10.163590 4.678940 4.621105 -20.975994 -0.000004 0.000001 -21.226255 2.451693 -3.593997 0.000001 -0.000006 -0.000001 -1.362680 2.240796 -0.746321 -21.334887 0.584908 3.008320 -13.821197 -0.000004 0.000002 -23.887133 -0.249079 -0.839480 -60.044743 2.538892 -0.928745 -0.294025 1.679687 0.833256 -14.218194 0.093214 1.300577 -34.212002 -0.287562 0.967168 -20.033176 0.964537 1.212842 0.000000 0.000002 0.000000 -3.440385 0.788232 0.501655 -15.928167 -3.167307 2.999703 -6.338817 -0.000001 0.000000 -18.123413 3.648176 -4.905661 -0.000004 -0.000000 -0.000003 20.970840 7.525535 19.396286 54.536804 17.685261 14.403192 0.458778 24.808538 0.217962 1.794284 0.837656 -3.815525 2.243540 -5.255033 -3.180155 14.282877 -0.826594 6.952497 -0.000003 -12.690590 -0.000001 16.476883 -18.059072 2.587952 1.665665 -1.955920 -2.878297 4.727794 -4.170583 4.993919 11.020511 0.000004 0.000002 12.109033 -3.735709 -2.866779 -0.000001 -0.000001 0.000001 1.291984 -1.928546 -1.498089 14.800113 0.567468 3.865605 14.242553 -1.341735 -6.660647 19.631941 0.143927 -0.648242 50.602539 -0.547937 -6.090357 0.353029 -1.511149 -0.031940 20.222769 3.684307 2.316628 18.787247 0.000005 0.000001 10.751611 -0.479867 1.397904 -0.000001 -0.000000 0.000000 3.273804 0.305947 -0.580109 21.486790 11.830360 2.266131 8.162918 0.000001 0.000000 18.399055 -3.798979 -4.940566 0.000005 0.000001 0.000000 -0.218247 5.838245 -2.614918 -0.015859 -0.064575 7.720021 -0.334231 1.969488 -5.055131 1.659575 -1.929741 -1.797224 -0.000000 0.000000 0.000002 0.745897 -3.690586 -6.421133 0.037547 -0.085241 10.319632 -0.802446 -4.175033 -3.652106 -1.440420 0.946236 -1.955568 -0.000000 -0.000000 -0.000001 
-0.292396 100.376106 6.320077 0.060649 0.017909 -0.194951 0.391637 -0.116661 -1.514609 -0.425134 -0.507723 -5.478922 -0.504767 -2.237772 14.015005 -0.753193 3.016738 -3.067675 -0.308625 0.382517 -3.578536 -0.014379 -0.518527 -5.723073 0.000077 -0.000022 0.000006 0.015595 0.084295 -0.057681 0.772760 -3.638516 -10.649512 -0.746197 3.816827 -10.623206 -11.230331 -5.365786 16.814993 -61.619797 -16.061823 32.104580 0.074277 -26.253811 -0.163328 8.046792 -1.801752 -5.101234 -5.882102 9.861278 0.702590 -10.936859 -0.360575 7.156199 0.000000 8.774813 -0.000001 -15.802403 17.972889 6.206741 -1.844032 2.498501 -2.507274 -10.163590 4.678941 4.621106 -20.975996 -0.000002 0.000000 -21.226255 2.451694 -3.593995 0.000001 -0.000006 -0.000001 -1.362681 2.240798 -0.746322 -21.334892 0.584909 3.008319 -13.821197 -0.000002 0.000001 -23.887133 -0.249078 -0.839483 -60.176620 2.529331 -0.863363 -0.294024 1.679686 0.833256 -14.218194 0.093215 1.300581 -34.212006 -0.287564 0.967169 -20.033180 0.964536 1.212842 0.000001 0.000002 0.000000 -3.440386 0.788233 0.501653 -15.928171 -3.167306 2.999705 -6.338818 -0.000001 0.000000 -18.123417 3.648175 -4.905659 -0.000005 0.000000 -0.000002 20.775436 7.510162 19.497444 54.657207 17.955807 14.786616 0.323118 24.913635 0.201888 1.869692 1.026023 -4.084884 2.243540 -5.255033 -3.180155 14.282877 -0.826594 6.952497 -0.000001 -12.690588 -0.000001 16.480694 -18.043802 2.555873 1.665664 -1.955920 -2.878298 4.727793 -4.170584 4.993919 11.020511 0.000003 0.000001 12.109030 -3.735710 -2.866778 0.000000 -0.000000 0.000001 1.291985 -1.928548 -1.498087 14.800111 0.567465 3.865606 14.242553 -1.341736 -6.660648 19.631937 0.143924 -0.648243 50.517601 -0.479350 -6.118642 0.353028 -1.511149 -0.031940 20.222767 3.684304 2.316631 18.787243 0.000004 -0.000000 10.751610 -0.479868 1.397905 0.000000 0.000000 0.000001 3.273804 0.305947 -0.580110 21.486792 11.830361 2.266134 8.162917 0.000000 0.000000 18.399054 -3.798981 -4.940568 0.000005 0.000000 -0.000002 -0.235893 5.755185 -2.631113 -0.022748 -0.086551 7.436381 -0.239369 2.067203 -4.901653 1.652116 -1.925476 -1.788993 -0.000000 -0.000000 0.000002 0.784872 -3.496654 -6.428409 0.016591 -0.108290 10.021056 -0.849099 -4.325350 -3.478784 -1.436052 0.934419 -2.056704 0.000000 0.000000 -0.000001 
-0.232541 100.417198 6.255805 0.051388 0.035021 -0.052112 0.382371 -0.089935 -1.310269 -0.433914 -0.501547 -5.438032 -0.539469 -2.235341 14.150417 -0.774953 3.040576 -2.942707 -0.356132 0.357605 -3.574900 -0.079549 -0.568046 -5.602017 0.000077 -0.000022 0.000006 0.017186 0.073943 -0.054124 0.771205 -3.645448 -10.651874 -0.741039 3.803429 -10.623182 -11.203856 -5.433423 16.881208 -61.438759 -16.160097 31.337494 0.079054 -26.268101 -0.149195 8.019711 -2.005310 -5.145480 -5.882100 9.861278 0.702591 -10.936858 -0.360575 7.156196 0.000000 8.774813 -0.000002 -15.841949 18.009079 6.223602 -1.844030 2.498502 -2.507273 -10.163589 4.678938 4.621105 -20.975994 -0.000005 0.000002 -21.226254 2.451690 -3.593992 0.000000 -0.000005 -0.000001 -1.362682 2.240797 -0.746323 -21.334890 0.584908 3.008318 -13.821197 -0.000003 0.000000 -23.887129 -0.249079 -0.839482 -60.290932 2.502191 -0.832396 -0.294025 1.679686 0.833257 -14.218194 0.093213 1.300578 -34.211998 -0.287566 0.967171 -20.033178 0.964535 1.212844 0.000001 -0.000000 0.000001 -3.440386 0.788232 0.501653 -15.928169 -3.167306 2.999704 -6.338815 -0.000001 0.000000 -18.123413 3.648173 -4.905663 -0.000004 0.000000 -0.000002 20.560532 7.584610 19.530132 54.745403 18.231586 15.303638 0.207492 24.987484 0.151270 1.887245 1.291723 -4.441255 2.243539 -5.255031 -3.180156 14.282878 -0.826592 6.952497 -0.000004 -12.690588 0.000000 16.459759 -18.084917 2.571103 1.665664 -1.955918 -2.878298 4.727793 -4.170582 4.993918 11.020512 0.000004 0.000000 12.109033 -3.735708 -2.866780 -0.000001 -0.000000 -0.000001 1.291985 -1.928548 -1.498088 14.800113 0.567468 3.865602 14.242553 -1.341733 -6.660647 19.631941 0.143928 -0.648243 50.469364 -0.453026 -6.118719 0.353028 -1.511149 -0.031940 20.222771 3.684308 2.316627 18.787247 0.000008 0.000000 10.751612 -0.479866 1.397905 -0.000001 -0.000000 0.000002 3.273805 0.305947 -0.580110 21.486795 11.830363 2.266133 8.162917 0.000002 -0.000001 18.399055 -3.798979 -4.940566 0.000005 0.000000 -0.000002 -0.310960 5.704162 -2.573858 -0.033395 -0.095031 6.925777 -0.167387 2.095020 -4.628637 1.649188 -1.919280 -1.766869 -0.000000 -0.000000 0.000002 0.776817 -3.262577 -6.406622 -0.007899 -0.148520 9.588053 -0.948709 -4.375628 -3.213545 -1.426402 0.917124 -2.096636 0.000000 0.000000 -0.000001 
-0.192266 100.437943 6.167085 0.054918 -0.034607 0.125167 0.367663 -0.065014 -1.068195 -0.454271 -0.505355 -5.372435 -0.568354 -2.236478 14.318891 -0.809789 3.080048 -2.762205 -0.404157 0.326607 -3.581941 -0.183219 -0.590771 -5.474619 0.000077 -0.000022 0.000006 0.017405 0.064627 -0.050525 0.770993 -3.651862 -10.654263 -0.741606 3.791419 -10.634278 -11.120295 -5.501222 16.909883 -61.286766 -16.148329 30.261499 0.089153 -26.483564 -0.146683 8.014352 -2.217823 -5.301293 -5.882101 9.861278 0.702590 -10.936861 -0.360575 7.156201 0.000001 8.774812 0.000001 -15.852433 18.037432 6.232529 -1.844031 2.498501 -2.507276 -10.163590 4.678939 4.621106 -20.975998 -0.000003 0.000002 -21.226254 2.451691 -3.593993 -0.000000 -0.000005 -0.000001 -1.362680 2.240795 -0.746321 -21.334894 0.584907 3.008321 -13.821197 -0.000003 0.000001 -23.887133 -0.249081 -0.839479 -60.377899 2.467619 -0.816431 -0.294024 1.679685 0.833255 -14.218195 0.093214 1.300581 -34.212006 -0.287562 0.967169 -20.033184 0.964534 1.212842 0.000001 -0.000001 -0.000000 -3.440385 0.788232 0.501655 -15.928171 -3.167306 2.999706 -6.338817 -0.000001 -0.000001 -18.123415 3.648176 -4.905659 -0.000004 -0.000000 -0.000002 20.270569 7.733835 19.488089 54.831303 18.558037 15.729139 0.208265 25.019922 0.123894 1.870049 1.613461 -4.617208 2.243539 -5.255033 -3.180155 14.282877 -0.826591 6.952496 -0.000003 -12.690590 -0.000002 16.455246 -18.117792 2.566591 1.665665 -1.955921 -2.878295 4.727793 -4.170582 4.993918 11.020513 0.000004 0.000001 12.109031 -3.735709 -2.866779 -0.000001 -0.000000 0.000001 1.291983 -1.928546 -1.498087 14.800114 0.567469 3.865604 14.242553 -1.341733 -6.660648 19.631935 0.143926 -0.648241 50.445923 -0.431557 -6.135233 0.353028 -1.511150 -0.031940 20.222771 3.684309 2.316628 18.787245 0.000006 0.000004 10.751608 -0.479867 1.397903 0.000000 0.000000 0.000001 3.273803 0.305947 -0.580112 21.486794 11.830363 2.266132 8.162917 0.000003 0.000000 18.399048 -3.798977 -4.940563 0.000005 0.000000 -0.000001 -0.378466 5.676950 -2.749954 -0.035177 -0.094334 6.786375 -0.186618 2.181318 -4.506227 1.647666 -1.919306 -1.705902 -0.000000 -0.000000 0.000002 0.770485 -3.024686 -6.609572 -0.029075 -0.179462 9.472530 -1.027914 -4.372029 -3.064642 -1.420435 0.930737 -2.074969 -0.000000 -0.000000 -0.000001 
